<mxfile host="app.diagrams.net" modified="2024-04-21T01:26:55.889Z" agent="Mozilla/5.0 (Windows NT 10.0; Win64; x64) AppleWebKit/537.36 (KHTML, like Gecko) Chrome/124.0.0.0 Safari/537.36" version="23.0.2" etag="Z0WoUrY567edgDAjMu1P" type="github">
  <diagram name="PÃ¡gina-1" id="jtfJF2l2sbxavJYi0dHU">
    <mxGraphModel>
      <root>
        <mxCell id="0" />
        <mxCell id="1" parent="0" />
      </root>
    </mxGraphModel>
  </diagram>
</mxfile>
